HIERARCHY
ROOT Torso
{
	OFFSET 0.000000 0.000000 0.000000
	CHANNELS 6 Xposition Yposition Zposition Zrotation Yrotation Xrotation
	JOINT TorsoExt
	{
		OFFSET 0.000000 0.000000 0.000000
		CHANNELS 6 Xposition Yposition Zposition Zrotation Yrotation Xrotation
		JOINT LeftHip
		{
			OFFSET 0.000000 0.010000 -0.060000
			CHANNELS 3 Zrotation Yrotation Xrotation
			JOINT LeftThigh
			{
				OFFSET 0.055000 0.000000 -0.055000
				CHANNELS 6 Xposition Yposition Zposition Zrotation Yrotation Xrotation
				JOINT LeftLeg
				{
					OFFSET 0.000000 -0.015000 -0.120000
					CHANNELS 6 Xposition Yposition Zposition Zrotation Yrotation Xrotation
					JOINT LeftFoot
					{
						OFFSET 0.000000 0.010000 -0.100000
						CHANNELS 6 Xposition Yposition Zposition Zrotation Yrotation Xrotation
						End Site
						{
							OFFSET 0.000000 -0.090000 -0.035000
						}
					}
				}
			}
		}
		JOINT RightHip
		{
			OFFSET 0.000000 0.010000 -0.060000
			CHANNELS 3 Zrotation Yrotation Xrotation
			JOINT RightThigh
			{
				OFFSET -0.055000 0.000000 -0.055000
				CHANNELS 6 Xposition Yposition Zposition Zrotation Yrotation Xrotation
				JOINT RightLeg
				{
					OFFSET 0.000000 -0.015000 -0.120000
					CHANNELS 6 Xposition Yposition Zposition Zrotation Yrotation Xrotation
					JOINT RightFoot
					{
						OFFSET 0.000000 0.010000 -0.100000
						CHANNELS 6 Xposition Yposition Zposition Zrotation Yrotation Xrotation
						End Site
						{
							OFFSET 0.000000 -0.090000 -0.035000
						}
					}
				}
			}
		}
	}
	JOINT Neck
	{
		OFFSET 0.000000 -0.000000 0.040000
		CHANNELS 6 Xposition Yposition Zposition Zrotation Yrotation Xrotation
		JOINT Head
		{
			OFFSET 0.000000 -0.000000 0.100000
			CHANNELS 6 Xposition Yposition Zposition Zrotation Yrotation Xrotation
			End Site
			{
				OFFSET 0.000000 -0.000000 0.070000
			}
		}
	}
	JOINT LeftUpperarm
	{
		OFFSET 0.098000 -0.000000 0.075000
		CHANNELS 6 Xposition Yposition Zposition Zrotation Yrotation Xrotation
		JOINT LeftLowerarm
		{
			OFFSET 0.000000 -0.090000 0.009000
			CHANNELS 6 Xposition Yposition Zposition Zrotation Yrotation Xrotation
			End Site
			{
				OFFSET 0.000000 -0.105000 0.000000
			}
		}
	}
	JOINT RightUpperarm
	{
		OFFSET -0.098000 -0.000000 0.075000
		CHANNELS 6 Xposition Yposition Zposition Zrotation Yrotation Xrotation
		JOINT RightLowerarm
		{
			OFFSET 0.000000 -0.090000 0.009000
			CHANNELS 6 Xposition Yposition Zposition Zrotation Yrotation Xrotation
			End Site
			{
				OFFSET 0.000000 -0.105000 0.000000
			}
		}
	}
}
MOTION
Frames: 5
Frame Time: 0.041667
0.000000 0.000000 0.000000 0.000000 -0.000000 0.000000 0.000000 0.000000 0.000000 0.000000 -0.000000 -0.000001 -31.493497 2.576849 12.723547 0.055000 -0.000002 -0.055000 -148.907823 -5.431622 19.345116 -0.000001 -0.015002 -0.119998 0.000050 0.000008 -12.835796 0.000000 0.010000 -0.100000 -176.005164 25.200171 -11.935578 34.502352 -5.273865 13.295472 -0.055000 -0.000002 -0.055000 145.519666 4.212275 21.061366 0.000000 -0.015000 -0.120001 -0.000046 -0.000033 -12.835795 -0.000000 0.010002 -0.100000 173.707966 -26.623512 -7.427379 0.000000 0.000002 0.040000 0.163301 -0.662765 -11.682858 0.000000 -0.000002 0.100000 -0.108577 0.513016 24.529897 0.098002 0.000000 0.075000 -0.000021 98.000005 -84.289438 -0.000002 -0.090000 0.009002 -0.000003 0.000005 -5.710591 -0.098002 -0.000000 0.075000 0.000021 -97.999991 -84.289438 -0.000002 -0.090000 0.009000 0.000001 0.000004 -5.710593 
0.000000 0.000000 0.000000 0.000000 -0.000000 0.000000 0.000000 0.000000 0.000000 0.000000 -0.000000 -0.000001 -33.290257 -3.360740 10.285398 0.055000 0.000000 -0.054999 -153.534743 -14.388591 19.091639 0.000000 -0.015002 -0.119999 0.000104 -0.000022 -36.083640 -0.000000 0.010000 -0.100001 -179.804238 25.645371 -28.786935 33.290509 -5.428102 6.850981 -0.055000 0.000000 -0.055000 139.464007 2.872877 48.968454 -0.000000 -0.015000 -0.119998 -0.000084 0.000012 -63.981476 -0.000000 0.010000 -0.100000 168.633423 -28.184682 -17.092256 0.000000 0.000002 0.040000 -6.116410 -3.219425 -6.191804 -0.000000 0.000004 0.100004 1.907448 6.229223 27.427886 0.098002 0.000000 0.075000 -32.937959 175.138140 -91.271340 -0.000000 -0.090000 0.008998 -21.962827 5.546978 33.745994 -0.098000 -0.000000 0.075002 13.571873 -181.045912 -89.087100 -0.000000 -0.090000 0.009000 18.006732 -3.273124 26.154591 
0.000000 0.000000 0.000000 0.000000 -0.000000 0.000000 0.000000 0.000000 0.000000 0.000000 -0.000000 -0.000001 -33.137906 -3.292851 10.323331 0.055001 0.000002 -0.055001 -153.583688 -14.407067 18.350148 -0.000000 -0.015002 -0.120000 0.000046 0.000046 -35.371948 0.000000 0.010002 -0.099999 -179.797244 25.646163 -28.778244 33.437710 -5.435859 6.928667 -0.055000 -0.000000 -0.055000 139.380037 3.037775 49.017324 0.000000 -0.015003 -0.119998 -0.000025 -0.000071 -61.712822 -0.000000 0.010000 -0.100001 168.645171 -28.213263 -17.499863 0.000000 -0.000000 0.040002 -6.006758 -3.183648 -5.672207 0.000000 0.000002 0.100000 2.095765 5.910182 26.762648 0.098000 0.000001 0.075002 -32.572199 174.917183 -91.194657 -0.000002 -0.090000 0.008996 -21.817397 5.450798 33.458897 -0.098000 -0.000000 0.075000 13.655578 -181.148283 -89.167560 0.000000 -0.089998 0.009000 18.067809 -3.303212 26.268899 
0.000000 0.000000 0.000000 0.000000 -0.000000 0.000000 0.000000 0.000000 0.000000 0.000000 -0.000000 -0.000001 -32.891428 -3.480969 10.521475 0.055001 0.000002 -0.055000 -153.745523 -14.753043 17.840989 -0.000000 -0.015002 -0.119999 0.000027 -0.000004 -35.056643 0.000001 0.010003 -0.100001 -179.926471 25.630667 -29.053521 33.705057 -5.692130 6.834189 -0.055000 0.000002 -0.055000 139.116419 2.849798 49.087077 0.000000 -0.014998 -0.120000 -0.000004 0.000023 -59.448833 -0.000000 0.010004 -0.100000 168.543838 -28.235915 -17.677969 -0.000000 0.000004 0.040002 -5.900041 -3.106292 -5.372706 -0.000000 -0.000000 0.099998 1.930055 5.655068 26.267313 0.098002 0.000001 0.075002 -32.909542 174.802081 -91.171189 -0.000000 -0.089999 0.008998 -21.929028 5.524540 33.679246 -0.098002 -0.000000 0.075002 13.216738 -181.179510 -89.123307 -0.000000 -0.090000 0.009002 18.147980 -3.342784 26.418897 
0.000000 0.000000 0.000000 0.000000 -0.000000 0.000000 0.000000 0.000000 0.000000 0.000000 -0.000000 -0.000001 -32.846127 -2.959375 10.526218 0.055000 -0.000000 -0.055000 -153.672822 -14.273941 17.477109 0.000000 -0.015000 -0.119999 0.000045 -0.000037 -34.510747 0.000000 0.010000 -0.100000 -179.958150 25.627155 -29.091989 33.703592 -5.489102 7.316961 -0.055000 0.000002 -0.055000 139.736696 3.213111 49.265946 -0.000000 -0.014998 -0.120000 -0.000036 0.000004 -57.111665 -0.000000 0.010000 -0.100000 168.783755 -28.261135 -18.398153 -0.000000 -0.000002 0.040000 -5.897486 -3.019455 -5.595942 0.000000 0.000002 0.100000 1.663164 5.572215 26.491189 0.098000 0.000000 0.075004 -33.065127 174.694232 -91.074924 -0.000001 -0.089999 0.009000 -21.954815 5.541659 33.730288 -0.098000 0.000000 0.075000 12.868420 -181.189605 -88.935224 -0.000000 -0.090001 0.009000 18.019508 -3.279459 26.178641 
